<svg width="21" height="21" viewBox="0 0 21 21" fill="none" xmlns="http://www.w3.org/2000/svg">
<path id="Union 71" d="M2.98996 17.9016C2.04861 16.9771 1.29972 15.8754 0.786544 14.6599C0.273369 13.4444 0.00607662 12.1392 0.000102412 10.8199C-0.0058718 9.5005 0.24959 8.19302 0.751737 6.97292C1.25388 5.75283 1.99276 4.6443 2.92571 3.71135C3.85866 2.77841 4.96719 2.03953 6.18728 1.53738C7.40737 1.03523 8.71486 0.779773 10.0342 0.785747C11.3536 0.791721 12.6587 1.05901 13.8742 1.57219C15.0897 2.08536 16.1915 2.83425 17.116 3.77561C18.0573 4.70007 18.8062 5.80186 19.3194 7.01736C19.8326 8.23285 20.0999 9.53797 20.1058 10.8573C20.1118 12.1767 19.8563 13.4842 19.3542 14.7043C18.852 15.9244 18.1132 17.0329 17.1802 17.9659C16.2473 18.8988 15.1387 19.6377 13.9187 20.1398C12.6986 20.642 11.3911 20.8974 10.0717 20.8915C8.75233 20.8855 7.44721 20.6182 6.23171 20.105C5.01622 19.5919 3.91442 18.843 2.98996 17.9016ZM1.45296 10.8386C1.45296 12.5395 1.95735 14.2023 2.90233 15.6165C3.84731 17.0308 5.19044 18.1331 6.76189 18.784C8.33333 19.4349 10.0625 19.6052 11.7307 19.2734C13.399 18.9415 14.9314 18.1225 16.1341 16.9197C17.3368 15.717 18.1559 14.1846 18.4877 12.5164C18.8196 10.8481 18.6492 9.11898 17.9983 7.54753C17.3474 5.97609 16.2451 4.63295 14.8309 3.68797C13.4166 2.74299 11.7539 2.23861 10.053 2.23861C7.77324 2.24231 5.58795 3.14957 3.97594 4.76158C2.36392 6.37359 1.45667 8.55888 1.45296 10.8386ZM10.053 15.4906C9.80631 15.4906 9.56977 15.3926 9.39536 15.2182C9.22095 15.0438 9.12296 14.8073 9.12296 14.5606C9.12296 14.314 9.22095 14.0774 9.39536 13.903C9.56977 13.7286 9.80631 13.6306 10.053 13.6306C10.2996 13.6306 10.5362 13.7286 10.7106 13.903C10.885 14.0774 10.983 14.314 10.983 14.5606C10.983 14.8073 10.885 15.0438 10.7106 15.2182C10.5362 15.3926 10.2996 15.4906 10.053 15.4906ZM9.35297 11.7696V7.11761C9.35297 6.93196 9.42671 6.75391 9.55799 6.62263C9.68927 6.49136 9.86731 6.41761 10.053 6.41761C10.2386 6.41761 10.4167 6.49136 10.5479 6.62263C10.6792 6.75391 10.753 6.93196 10.753 7.11761V11.7696C10.753 11.9553 10.6792 12.1333 10.5479 12.2646C10.4167 12.3959 10.2386 12.4696 10.053 12.4696C9.86731 12.4696 9.68927 12.3959 9.55799 12.2646C9.42671 12.1333 9.35297 11.9553 9.35297 11.7696Z" fill="#464646"/>
</svg>
