<svg width="56" height="56" viewBox="0 0 56 56" fill="none" xmlns="http://www.w3.org/2000/svg">
<path d="M25 26C26.1046 26 27 25.1046 27 24C27 22.8954 26.1046 22 25 22C23.8954 22 23 22.8954 23 24C23 25.1046 23.8954 26 25 26Z" stroke="white" stroke-width="1.5" stroke-linecap="round" stroke-linejoin="round"/>
<path d="M29 18H25C20 18 18 20 18 25V31C18 36 20 38 25 38H31C36 38 38 36 38 31V26" stroke="white" stroke-width="1.5" stroke-linecap="round" stroke-linejoin="round"/>
<path d="M31.75 21H37.25" stroke="white" stroke-width="1.5" stroke-linecap="round"/>
<path d="M34.5 23.75V18.25" stroke="white" stroke-width="1.5" stroke-linecap="round"/>
<path d="M18.67 34.9496L23.6 31.6396C24.39 31.1096 25.53 31.1696 26.24 31.7796L26.57 32.0696C27.35 32.7396 28.61 32.7396 29.39 32.0696L33.55 28.4996C34.33 27.8296 35.59 27.8296 36.37 28.4996L38 29.8996" stroke="white" stroke-width="1.5" stroke-linecap="round" stroke-linejoin="round"/>
<rect x="1" y="1" width="54" height="54" rx="27" stroke="#D8E2DC" stroke-width="2" stroke-linejoin="round"/>
</svg>
