<svg width="40" height="40" viewBox="0 0 40 40" fill="none" xmlns="http://www.w3.org/2000/svg">
<g id="Group 1171274942">
<g id="Group 1171275082">
<g id="Group 1171274946">
<path id="Vector" d="M18 26.425V14.575C18 13.45 17.7765 13 17.2118 13H15.7882C15.2275 13 15 13.45 15 14.575V26.425C15 27.55 15.2235 28 15.7882 28H17.2118C17.7765 28 18 27.55 18 26.425Z" fill="#464646" stroke="#464646" stroke-width="1.5" stroke-linecap="round" stroke-linejoin="round"/>
<path id="Vector_2" d="M26 26.425V14.575C26 13.45 25.7765 13 25.2118 13H23.7882C23.2275 13 23 13.45 23 14.575V26.425C23 27.55 23.2235 28 23.7882 28H25.2118C25.7765 28 26 27.55 26 26.425Z" fill="#464646" stroke="#464646" stroke-width="1.5" stroke-linecap="round" stroke-linejoin="round"/>
</g>
</g>
<circle id="Ellipse 2322" cx="20" cy="20" r="19" stroke="#464646" stroke-width="2"/>
</g>
</svg>
