<svg width="57" height="56" viewBox="0 0 57 56" fill="none" xmlns="http://www.w3.org/2000/svg">
<circle cx="28.5" cy="28" r="27" stroke="#DADADA" stroke-width="2"/>
<path d="M23.7599 38H34.2399C36.9999 38 38.0999 36.31 38.2299 34.25L38.7499 25.99C38.8899 23.83 37.1699 22 34.9999 22C34.3899 22 33.8299 21.65 33.5499 21.11L32.8299 19.66C32.3699 18.75 31.1699 18 30.1499 18H27.8599C26.8299 18 25.6299 18.75 25.1699 19.66L24.4499 21.11C24.1699 21.65 23.6099 22 22.9999 22C20.8299 22 19.1099 23.83 19.2499 25.99L19.7699 34.25C19.8899 36.31 20.9999 38 23.7599 38Z" stroke="white" stroke-width="1.5" stroke-linecap="round" stroke-linejoin="round"/>
<path d="M27.5 24H30.5" stroke="white" stroke-width="1.5" stroke-linecap="round" stroke-linejoin="round"/>
<path d="M29 34C30.79 34 32.25 32.54 32.25 30.75C32.25 28.96 30.79 27.5 29 27.5C27.21 27.5 25.75 28.96 25.75 30.75C25.75 32.54 27.21 34 29 34Z" stroke="white" stroke-width="1.5" stroke-linecap="round" stroke-linejoin="round"/>
</svg>
