<svg width="60" height="80" viewBox="0 0 60 80" fill="none" xmlns="http://www.w3.org/2000/svg">
<rect width="60" height="80" rx="10" fill="#F8F8F8"/>
<path d="M27 38.3801C28.3144 38.3801 29.38 37.3146 29.38 36.0001C29.38 34.6857 28.3144 33.6201 27 33.6201C25.6856 33.6201 24.62 34.6857 24.62 36.0001C24.62 37.3146 25.6856 38.3801 27 38.3801Z" fill="#464646"/>
<path d="M39.222 31.5H38.5V40.61L38.37 40.5C37.59 39.83 36.33 39.83 35.55 40.5L31.39 44.07C30.61 44.74 29.35 44.74 28.57 44.07L28.23 43.79C27.52 43.17 26.39 43.11 25.59 43.65L21.85 46.16C21.63 45.6 21.5 44.95 21.5 44.19V35.81C21.5 32.99 22.99 31.5 25.81 31.5H40C40 31.5 40 31.2135 40 31.03C40 30.6278 40 30.302 40 30H25.81C22.17 30 20 32.17 20 35.81V44.19C20 45.28 20.19 46.23 20.56 47.03C21.42 48.93 23.26 50 25.81 50H34.19C37.83 50 40 47.83 40 44.19V31.5C39.7109 31.5 39.622 31.5 39.222 31.5Z" fill="#464646"/>
</svg>
