<svg width="18" height="18" viewBox="0 0 18 18" fill="none" xmlns="http://www.w3.org/2000/svg">
<path d="M17.521 9.02148C17.521 4.32706 13.7154 0.521484 9.021 0.521484C4.32658 0.521484 0.520996 4.32706 0.520996 9.02148C0.520996 13.7159 4.32658 17.5215 9.021 17.5215C13.7154 17.5215 17.521 13.7159 17.521 9.02148Z" fill="#2A78FF"/>
<path d="M8.88189 10.1515C9.65749 10.1515 10.2862 9.52273 10.2862 8.74712C10.2862 7.97152 9.65749 7.34277 8.88189 7.34277C8.10629 7.34277 7.47754 7.97152 7.47754 8.74712C7.47754 9.52273 8.10629 10.1515 8.88189 10.1515Z" stroke="white"/>
<path d="M5.11024 7.92807C5.99697 4.03009 11.7719 4.03459 12.6541 7.93257C13.1718 10.2191 11.7494 12.1546 10.5026 13.3519C9.59787 14.2251 8.16651 14.2251 7.25728 13.3519C6.01497 12.1546 4.59261 10.2146 5.11024 7.92807Z" stroke="white"/>
</svg>
