<svg width="42" height="42" viewBox="0 0 42 42" fill="none" xmlns="http://www.w3.org/2000/svg">
<g filter="url(#filter0_d_2391_2643)">
<path d="M21 33C29.2843 33 36 26.2843 36 18C36 9.71573 29.2843 3 21 3C12.7157 3 6 9.71573 6 18C6 26.2843 12.7157 33 21 33Z" fill="white"/>
</g>
<path d="M21 23.625C22.1125 23.625 23.2002 23.295 24.1252 22.6769C25.0503 22.0589 25.7712 21.1804 26.1969 20.1526C26.6226 19.1247 26.734 17.9938 26.517 16.9026C26.2999 15.8115 25.7641 14.8091 24.9774 14.0225C24.1907 13.2358 23.1887 12.7001 22.0975 12.4831C21.0064 12.2661 19.8752 12.3774 18.8474 12.8032C17.8196 13.2289 16.9412 13.9499 16.3231 14.8749C15.705 15.7999 15.375 16.8874 15.375 18C15.375 19.4918 15.9677 20.9226 17.0226 21.9775C18.0775 23.0324 19.5082 23.625 21 23.625Z" stroke="black" stroke-width="1.5" stroke-linecap="round" stroke-linejoin="round"/>
<path d="M21 20.25C21.445 20.25 21.8799 20.118 22.2499 19.8708C22.6199 19.6236 22.9083 19.2722 23.0786 18.8611C23.2489 18.4499 23.2936 17.9975 23.2068 17.561C23.12 17.1246 22.9055 16.7237 22.5908 16.409C22.2762 16.0943 21.8755 15.88 21.4391 15.7932C21.0026 15.7064 20.5502 15.751 20.139 15.9213C19.7279 16.0916 19.3763 16.3799 19.129 16.7499C18.8818 17.12 18.75 17.555 18.75 18C18.75 18.5967 18.9872 19.1691 19.4092 19.591C19.8311 20.013 20.4033 20.25 21 20.25Z" stroke="black" stroke-width="1.5" stroke-linecap="round" stroke-linejoin="round"/>
<path d="M21 12V10.5" stroke="black" stroke-width="1.5" stroke-linecap="round" stroke-linejoin="round"/>
<path d="M15 18H13.5" stroke="black" stroke-width="1.5" stroke-linecap="round" stroke-linejoin="round"/>
<path d="M21 24V25.5" stroke="black" stroke-width="1.5" stroke-linecap="round" stroke-linejoin="round"/>
<path d="M27 18H28.5" stroke="black" stroke-width="1.5" stroke-linecap="round" stroke-linejoin="round"/>
<defs>
<filter id="filter0_d_2391_2643" x="0" y="0" width="42" height="42" filterUnits="userSpaceOnUse" color-interpolation-filters="sRGB">
<feFlood flood-opacity="0" result="BackgroundImageFix"/>
<feColorMatrix in="SourceAlpha" type="matrix" values="0 0 0 0 0 0 0 0 0 0 0 0 0 0 0 0 0 0 127 0" result="hardAlpha"/>
<feOffset dy="3"/>
<feGaussianBlur stdDeviation="3"/>
<feColorMatrix type="matrix" values="0 0 0 0 0 0 0 0 0 0 0 0 0 0 0 0 0 0 0.161 0"/>
<feBlend mode="normal" in2="BackgroundImageFix" result="effect1_dropShadow_2391_2643"/>
<feBlend mode="normal" in="SourceGraphic" in2="effect1_dropShadow_2391_2643" result="shape"/>
</filter>
</defs>
</svg>
