<svg width="20" height="21" viewBox="0 0 20 21" fill="none" xmlns="http://www.w3.org/2000/svg">
<g id="Group 3260">
<path id="Union 62" d="M7.20002 20.8091C6.6648 20.8785 6.12076 20.8222 5.61111 20.6446C5.10146 20.467 4.64022 20.1731 4.26402 19.7861C3.84173 19.124 3.62912 18.3499 3.65402 17.5651L3.04102 8.19308C3.03547 8.10112 3.04814 8.00897 3.07828 7.92192C3.10842 7.83486 3.15546 7.75461 3.21668 7.68577C3.2779 7.61693 3.35211 7.56085 3.43506 7.52075C3.518 7.48065 3.60804 7.45731 3.70002 7.45208H3.74702C3.92612 7.45056 4.0991 7.51717 4.23093 7.63842C4.36276 7.75966 4.44358 7.92648 4.45702 8.10508L5.07302 17.4721C5.05313 17.9802 5.16583 18.4847 5.40002 18.9361C5.64802 19.2521 6.25602 19.4131 7.20802 19.4131H13.3C14.251 19.4131 14.859 19.2521 15.108 18.9361C15.34 18.4824 15.45 17.9761 15.427 17.4671L16.043 8.10408C16.0565 7.92548 16.1373 7.75866 16.2691 7.63742C16.4009 7.51617 16.5739 7.44956 16.753 7.45108H16.799C16.8914 7.45568 16.982 7.47854 17.0655 7.51836C17.149 7.55818 17.2238 7.61416 17.2856 7.68307C17.3473 7.75198 17.3948 7.83244 17.4253 7.91981C17.4557 8.00718 17.4686 8.09972 17.463 8.19208L16.847 17.5591C16.8724 18.3453 16.6597 19.1208 16.237 19.7841C15.8609 20.1715 15.3995 20.4659 14.8897 20.6438C14.3799 20.8217 13.8356 20.8783 13.3 20.8091H7.20002ZM8.66102 15.6931C8.47537 15.6931 8.29732 15.6193 8.16604 15.4881C8.03477 15.3568 7.96102 15.1787 7.96102 14.9931C7.96102 14.8074 8.03477 14.6294 8.16604 14.4981C8.29732 14.3668 8.47537 14.2931 8.66102 14.2931H11.82C12.0057 14.2931 12.1837 14.3668 12.315 14.4981C12.4463 14.6294 12.52 14.8074 12.52 14.9931C12.52 15.1787 12.4463 15.3568 12.315 15.4881C12.1837 15.6193 12.0057 15.6931 11.82 15.6931H8.66102ZM7.87402 11.9721C7.77746 11.9803 7.68025 11.9683 7.58855 11.937C7.49685 11.9056 7.41265 11.8556 7.34129 11.79C7.26994 11.7245 7.21297 11.6448 7.174 11.5561C7.13503 11.4673 7.11491 11.3715 7.11491 11.2746C7.11491 11.1777 7.13503 11.0818 7.174 10.9931C7.21297 10.9044 7.26994 10.8247 7.34129 10.7591C7.41265 10.6936 7.49685 10.6435 7.58855 10.6122C7.68025 10.5809 7.77746 10.5689 7.87402 10.5771H12.617C12.7136 10.5689 12.8108 10.5809 12.9025 10.6122C12.9942 10.6435 13.0784 10.6936 13.1497 10.7591C13.2211 10.8247 13.2781 10.9044 13.317 10.9931C13.356 11.0818 13.3761 11.1777 13.3761 11.2746C13.3761 11.3715 13.356 11.4673 13.317 11.5561C13.2781 11.6448 13.2211 11.7245 13.1497 11.79C13.0784 11.8556 12.9942 11.9056 12.9025 11.937C12.8108 11.9683 12.7136 11.9803 12.617 11.9721H7.87402ZM18.718 5.90308C15.565 5.59708 12.39 5.44108 9.28202 5.44108C7.43502 5.44108 5.56402 5.53408 3.71802 5.71608L1.78102 5.90308C1.68609 5.91996 1.5887 5.91704 1.49495 5.89452C1.40121 5.87199 1.31312 5.83034 1.23623 5.77218C1.15933 5.71402 1.09528 5.6406 1.04808 5.55652C1.00089 5.47245 0.971576 5.37953 0.961975 5.28359C0.952375 5.18765 0.962696 5.09077 0.992293 4.99901C1.02189 4.90725 1.07012 4.82259 1.13397 4.75034C1.19782 4.6781 1.2759 4.61982 1.36332 4.57916C1.45075 4.53851 1.54563 4.51635 1.64202 4.51408L3.57802 4.32908C4.45802 4.24208 5.34502 4.17508 6.23302 4.12908L6.43302 2.93708C6.59002 2.03808 6.80002 0.809082 9.00702 0.809082H11.492C13.708 0.809082 13.921 2.09708 14.063 2.94808L14.271 4.14808V4.17008C15.797 4.24808 17.328 4.36108 18.853 4.50908C19.0387 4.51757 19.2133 4.59946 19.3386 4.73673C19.4639 4.87401 19.5295 5.05543 19.521 5.24108C19.5125 5.42673 19.4306 5.60141 19.2934 5.72668C19.1561 5.85196 18.9747 5.91757 18.789 5.90908C18.7653 5.90832 18.7416 5.90632 18.718 5.90308ZM12.822 4.10908L12.66 3.17408C12.6436 2.90831 12.5678 2.64961 12.438 2.41708C12.1587 2.23519 11.8236 2.15896 11.493 2.20208H9.00702C8.67839 2.15813 8.34466 2.22876 8.06202 2.40208C7.93348 2.63548 7.8577 2.89422 7.84002 3.16008L7.68502 4.06008C8.21835 4.04542 8.75168 4.03808 9.28502 4.03808C10.455 4.04342 11.634 4.06708 12.822 4.10908Z" fill="#FF0000"/>
</g>
</svg>
