<svg width="28" height="28" viewBox="0 0 28 28" fill="none" xmlns="http://www.w3.org/2000/svg">
<path d="M28 14C28 6.26801 21.732 0 14 0C6.26801 0 0 6.26801 0 14C0 21.732 6.26801 28 14 28C21.732 28 28 21.732 28 14Z" fill="#F56062"/>
<path d="M13.0017 17.7508V12.2508C13.002 12.2173 12.9956 12.184 12.9827 12.1531C12.9698 12.1222 12.9508 12.0942 12.9268 12.0708C12.9038 12.0474 12.8761 12.0291 12.8456 12.0171C12.8151 12.005 12.7825 11.9995 12.7498 12.0008H12.2558C12.2215 11.9993 12.1873 12.0048 12.1552 12.0168C12.123 12.0288 12.0936 12.0472 12.0687 12.0708C12.0462 12.0948 12.0288 12.1231 12.0176 12.1541C12.0064 12.185 12.0017 12.2179 12.0037 12.2508V17.7508C12.0017 17.7835 12.0064 17.8163 12.0176 17.847C12.0288 17.8778 12.0462 17.906 12.0687 17.9298C12.0937 17.9534 12.1231 17.9717 12.1552 17.9837C12.1873 17.9957 12.2215 18.0012 12.2558 17.9998H12.7498C12.7825 18.0011 12.8151 17.9956 12.8456 17.9835C12.8761 17.9715 12.9038 17.9532 12.9268 17.9298C12.9508 17.9066 12.9698 17.8788 12.9827 17.848C12.9956 17.8172 13.002 17.7842 13.0017 17.7508ZM15.0017 17.7508V12.2508C15.0038 12.2179 14.999 12.185 14.9878 12.1541C14.9766 12.1231 14.9593 12.0948 14.9368 12.0708C14.9119 12.0472 14.8825 12.0289 14.8504 12.0169C14.8182 12.0049 14.784 11.9994 14.7498 12.0008H14.2558C14.223 11.9995 14.1903 12.005 14.1598 12.0171C14.1293 12.0291 14.1017 12.0474 14.0788 12.0708C14.0548 12.0942 14.0357 12.1222 14.0228 12.1531C14.01 12.1841 14.0034 12.2173 14.0037 12.2508V17.7508C14.0034 17.7841 14.0101 17.8172 14.023 17.848C14.0359 17.8787 14.0548 17.9066 14.0788 17.9298C14.1018 17.9531 14.1293 17.9714 14.1598 17.9834C14.1903 17.9955 14.223 18.001 14.2558 17.9998H14.7498C14.784 18.0012 14.8182 17.9957 14.8504 17.9837C14.8825 17.9717 14.9119 17.9534 14.9368 17.9298C14.9587 17.9057 14.9754 17.8775 14.9861 17.8467C14.9968 17.8159 15.001 17.7833 14.9987 17.7508H15.0017ZM17.0017 17.7508V12.2508C17.0037 12.2179 16.999 12.185 16.9878 12.1541C16.9766 12.1231 16.9593 12.0948 16.9368 12.0708C16.9138 12.0475 16.8861 12.0292 16.8556 12.0172C16.8251 12.0051 16.7925 11.9995 16.7598 12.0008H16.2598C16.227 11.9995 16.1943 12.005 16.1638 12.0171C16.1334 12.0291 16.1058 12.0474 16.0828 12.0708C16.0589 12.0943 16.0401 12.1223 16.0274 12.1532C16.0146 12.1842 16.0082 12.2174 16.0087 12.2508V17.7508C16.0083 17.7841 16.0146 17.8171 16.0274 17.8479C16.0401 17.8786 16.059 17.9065 16.0828 17.9298C16.1058 17.9531 16.1334 17.9714 16.1638 17.9834C16.1943 17.9955 16.227 18.001 16.2598 17.9998H16.7598C16.7925 18.001 16.8251 17.9955 16.8556 17.9834C16.8861 17.9714 16.9138 17.9531 16.9368 17.9298C16.9582 17.9055 16.9744 17.8771 16.9845 17.8463C16.9947 17.8156 16.9985 17.7831 16.9957 17.7508H17.0017ZM12.7567 10.0008H16.2567L15.8837 9.08679C15.8513 9.0438 15.805 9.0134 15.7527 9.00079H13.2708C13.2184 9.01324 13.172 9.04367 13.1398 9.08679L12.7567 10.0008ZM20.0067 10.2508V10.7508C20.007 10.7842 20.0006 10.8172 19.9877 10.848C19.9748 10.8788 19.9558 10.9066 19.9318 10.9298C19.9088 10.9532 19.8811 10.9715 19.8506 10.9835C19.8201 10.9956 19.7875 11.0011 19.7548 10.9998H19.0087V18.4068C19.019 18.8125 18.8871 19.2091 18.6358 19.5278C18.5384 19.6713 18.4078 19.7892 18.2551 19.8714C18.1024 19.9536 17.9321 19.9976 17.7587 19.9998H11.2587C11.0871 19.9975 10.9184 19.955 10.7661 19.8759C10.6138 19.7967 10.4822 19.683 10.3817 19.5438C10.133 19.2295 10.0011 18.8386 10.0087 18.4378V10.9998H9.26271C9.22997 11.001 9.19736 10.9955 9.16689 10.9834C9.13642 10.9714 9.10874 10.9531 9.08571 10.9298C9.06191 10.9065 9.04313 10.8786 9.03042 10.8479C9.0177 10.8171 9.01132 10.7841 9.01174 10.7508V10.2508C9.01141 10.2174 9.01783 10.1842 9.03054 10.1533C9.04325 10.1224 9.06197 10.0943 9.08571 10.0708C9.10874 10.0475 9.13642 10.0292 9.16689 10.0172C9.19736 10.0051 9.22997 9.99953 9.26271 10.0008H11.6797L12.2207 8.70081C12.312 8.49801 12.4612 8.3268 12.6497 8.2088C12.8294 8.07998 13.0447 8.01009 13.2658 8.00879H15.7658C15.9861 8.01898 16.1993 8.08971 16.3821 8.2132C16.5649 8.33669 16.7101 8.50818 16.8018 8.7088L17.3427 10.0088H19.7598C19.7925 10.0075 19.8251 10.013 19.8556 10.0251C19.8861 10.0371 19.9138 10.0554 19.9368 10.0788C19.9786 10.1258 20.001 10.1869 19.9998 10.2498L20.0067 10.2508Z" fill="white"/>
</svg>
