<svg width="19" height="18" viewBox="0 0 19 18" fill="none" xmlns="http://www.w3.org/2000/svg">
<path id="Path 29624" d="M6.74389 2.52026L1.34398 12.8203C1.06354 13.3513 0.958874 13.9577 1.04491 14.5521C1.13095 15.1464 1.40322 15.6982 1.82274 16.1279C2.24227 16.5577 2.78725 16.8433 3.37938 16.9436C3.97152 17.0439 4.58024 16.9538 5.11791 16.6862L7.98803 15.2462C8.38126 15.049 8.81495 14.9463 9.25487 14.9463C9.69479 14.9463 10.1287 15.049 10.522 15.2462L13.3918 16.6862C13.9295 16.9531 14.5381 17.0427 15.1299 16.9421C15.7216 16.8415 16.2662 16.5559 16.6855 16.1263C17.1048 15.6968 17.3773 15.1455 17.4636 14.5515C17.5499 13.9574 17.4457 13.3513 17.166 12.8203L11.7659 2.52026C11.5274 2.06007 11.1672 1.67421 10.7244 1.40491C10.2815 1.1356 9.77316 0.993164 9.25487 0.993164C8.73658 0.993164 8.22846 1.1356 7.78563 1.40491C7.3428 1.67421 6.98231 2.06007 6.74389 2.52026Z" stroke="black" stroke-width="1.5" stroke-linecap="round" stroke-linejoin="round"/>
</svg>
