<svg width="18" height="20" viewBox="0 0 18 20" fill="none" xmlns="http://www.w3.org/2000/svg">
<path id="Union 47" d="M0.6925 19.8499C0.508838 19.8499 0.332697 19.7769 0.202829 19.6471C0.0729596 19.5172 0 19.3411 0 19.1574C0 18.9737 0.0729596 18.7976 0.202829 18.6677C0.332697 18.5379 0.508838 18.4649 0.6925 18.4649H17.3075C17.4912 18.4649 17.6673 18.5379 17.7972 18.6677C17.927 18.7976 18 18.9737 18 19.1574C18 19.3411 17.927 19.5172 17.7972 19.6471C17.6673 19.7769 17.4912 19.8499 17.3075 19.8499H0.6925ZM1.4525 16.1829C1.24677 15.944 1.09434 15.664 1.00536 15.3615C0.916386 15.0591 0.89291 14.7411 0.9365 14.4289L1.2785 11.4359C1.2785 11.4359 1.2785 11.4279 1.2785 11.4229C1.38524 10.7939 1.66188 10.2061 2.0785 9.7229L9.6585 1.6999C10.0178 1.24836 10.4677 0.877124 10.9792 0.61015C11.4908 0.343177 12.0526 0.18639 12.6285 0.149902C13.7326 0.216971 14.7683 0.706916 15.5205 1.5179C16.0024 1.9003 16.3915 2.38684 16.6585 2.94104C16.9256 3.49524 17.0637 4.10272 17.0625 4.7179C16.9323 5.7416 16.4455 6.68664 15.6875 7.3869L14.5145 8.6319C14.4665 8.7077 14.4044 8.77356 14.3315 8.8259L8.1135 15.4079C7.65535 15.8622 7.07584 16.1747 6.4445 16.3079L3.4725 16.8159C3.32748 16.8408 3.18064 16.8535 3.0335 16.8539C2.73716 16.8608 2.44277 16.8042 2.17009 16.6879C1.89741 16.5717 1.65275 16.3985 1.4525 16.1799V16.1829ZM3.0885 10.6699C2.8713 10.9407 2.72213 11.2596 2.6535 11.5999L2.3125 14.5829C2.29243 14.7011 2.29727 14.8222 2.32672 14.9385C2.35617 15.0547 2.40957 15.1635 2.4835 15.2579C2.55376 15.3309 2.63886 15.3879 2.73305 15.4252C2.82724 15.4624 2.92834 15.4791 3.0295 15.4739C3.09656 15.4736 3.16347 15.4676 3.2295 15.4559L6.2005 14.9499C6.53344 14.8698 6.84023 14.7056 7.0915 14.4729L7.0995 14.4639L12.5585 8.6859C11.647 8.395 10.8129 7.90225 10.1183 7.24432C9.42367 6.58639 8.8864 5.78024 8.5465 4.8859L3.0885 10.6699ZM13.6545 7.5269L14.6815 6.4399C15.2126 5.96747 15.5655 5.32718 15.6815 4.6259C15.6646 4.21528 15.5562 3.81362 15.3642 3.45028C15.1721 3.08695 14.9013 2.77112 14.5715 2.5259C14.0715 1.96334 13.3784 1.60926 12.6295 1.5339C12.243 1.57509 11.8692 1.69544 11.5313 1.88745C11.1934 2.07945 10.8987 2.339 10.6655 2.6499L9.6445 3.7269C9.86172 4.68608 10.3587 5.55921 11.0726 6.23569C11.7865 6.91216 12.685 7.36154 13.6545 7.5269Z" fill="black"/>
</svg>
