<svg width="21" height="21" viewBox="0 0 21 21" fill="none" xmlns="http://www.w3.org/2000/svg">
<g id="Group 3258">
<path id="Union 60" d="M5.3606 19.2856C3.96191 19.366 2.58525 18.9096 1.5116 18.0096C0.990999 17.4866 0.587924 16.8586 0.329264 16.1674C0.0706037 15.4763 -0.0376934 14.7379 0.0115976 14.0016V7.56961C-0.0377085 6.83315 0.0705779 6.09465 0.329235 5.40334C0.587892 4.71204 0.990974 4.08383 1.5116 3.56061C2.5854 2.66094 3.96204 2.20492 5.3606 2.28561H14.6606C16.0598 2.20441 17.4373 2.66046 18.5116 3.56061C19.0322 4.08383 19.4353 4.71204 19.694 5.40334C19.9526 6.09465 20.0609 6.83315 20.0116 7.56961V14.0016C20.0609 14.7379 19.9526 15.4763 19.6939 16.1674C19.4353 16.8586 19.0322 17.4866 18.5116 18.0096C17.4379 18.9096 16.0613 19.366 14.6626 19.2856H5.3606ZM2.4626 4.57061C2.08569 4.96841 1.79685 5.44117 1.6149 5.95808C1.43294 6.47499 1.36197 7.02444 1.4066 7.57061V14.0026C1.36197 14.5488 1.43294 15.0982 1.6149 15.6151C1.79685 16.1321 2.08569 16.6048 2.4626 17.0026C3.28051 17.6594 4.31619 17.9834 5.3626 17.9096H14.6626C15.709 17.9834 16.7447 17.6594 17.5626 17.0026C17.9395 16.6048 18.2283 16.1321 18.4103 15.6151C18.5923 15.0982 18.6632 14.5488 18.6186 14.0026V7.56961C18.6632 7.02344 18.5923 6.47399 18.4103 5.95708C18.2283 5.44017 17.9395 4.96741 17.5626 4.56961C16.7444 3.9135 15.7088 3.58999 14.6626 3.66361H5.3626C4.31624 3.59027 3.2807 3.91414 2.4626 4.57061ZM7.8276 10.8646L4.9276 8.56461C4.85597 8.50912 4.79608 8.43994 4.75141 8.3611C4.70673 8.28227 4.67817 8.19534 4.66738 8.10537C4.65659 8.0154 4.66378 7.92419 4.68854 7.83702C4.71329 7.74986 4.75512 7.66848 4.8116 7.59761C4.92782 7.45413 5.09601 7.36238 5.27957 7.34234C5.46312 7.3223 5.64716 7.37559 5.7916 7.49061L8.6916 9.79061C9.07546 10.0582 9.53215 10.2017 10.0001 10.2017C10.468 10.2017 10.9247 10.0582 11.3086 9.79061L14.2196 7.49061C14.3642 7.37571 14.5483 7.32258 14.7318 7.34281C14.9154 7.36304 15.0835 7.45498 15.1996 7.59861C15.2567 7.66916 15.2992 7.75037 15.3246 7.83751C15.35 7.92465 15.3579 8.01597 15.3476 8.10616C15.3374 8.19635 15.3093 8.2836 15.265 8.36282C15.2207 8.44205 15.1611 8.51166 15.0896 8.56761L12.1776 10.8676C11.5462 11.3325 10.7827 11.5833 9.9986 11.5833C9.21452 11.5833 8.45099 11.3325 7.8196 10.8676L7.8276 10.8646Z" fill="#464646"/>
</g>
</svg>
