<svg width="21" height="21" viewBox="0 0 21 21" fill="none" xmlns="http://www.w3.org/2000/svg">
<g id="Group 3257">
<path id="Union 64" d="M5.16474 20.3388C5.0056 20.1898 4.87902 20.0094 4.79297 19.8091C4.70692 19.6088 4.66326 19.3928 4.66474 19.1748V17.8688C3.47465 17.7724 2.35492 17.2659 1.49674 16.4358C1.00428 15.9307 0.618904 15.3314 0.363725 14.6738C0.108546 14.0162 -0.011175 13.3138 0.011742 12.6088V7.08578C-0.0119658 6.38015 0.107279 5.67701 0.362306 5.01865C0.617332 4.36029 1.00287 3.7603 1.49574 3.25478C2.01017 2.76556 2.61688 2.38371 3.28047 2.13149C3.94406 1.87927 4.65124 1.76175 5.36074 1.78578H14.6607C15.3702 1.76181 16.0774 1.87936 16.741 2.13157C17.4046 2.38378 18.0113 2.76561 18.5257 3.25478C19.019 3.76014 19.4049 4.36005 19.6603 5.01842C19.9156 5.67678 20.0352 6.38001 20.0117 7.08578V12.6128C20.0348 13.3177 19.9152 14.0201 19.6602 14.6777C19.4052 15.3353 19.02 15.9347 18.5277 16.4398C18.0132 16.9288 17.4064 17.3104 16.7429 17.5625C16.0793 17.8145 15.3722 17.9319 14.6627 17.9078H11.1517L7.18974 20.5148C6.92296 20.6917 6.60988 20.786 6.28974 20.7858C5.87179 20.784 5.46995 20.6243 5.16474 20.3388ZM1.41174 7.08578V12.6128C1.37783 13.1389 1.45715 13.6662 1.64436 14.1591C1.83156 14.652 2.1223 15.099 2.49696 15.4699C2.87162 15.8409 3.32147 16.1272 3.81619 16.3095C4.3109 16.4918 4.83896 16.5659 5.36474 16.5268C5.45605 16.526 5.54661 16.5432 5.63124 16.5775C5.71588 16.6118 5.79291 16.6624 5.85794 16.7265C5.92297 16.7906 5.97471 16.8669 6.0102 16.951C6.04568 17.0352 6.06422 17.1255 6.06474 17.2168V19.1788C6.06363 19.2092 6.06913 19.2396 6.08087 19.2677C6.09261 19.2959 6.1103 19.3211 6.13274 19.3418C6.17703 19.384 6.23559 19.4079 6.29674 19.4088C6.34107 19.4086 6.38431 19.395 6.42074 19.3698L10.5617 16.6428C10.6766 16.5673 10.8112 16.5273 10.9487 16.5278H14.6687C15.1942 16.5655 15.7216 16.4902 16.2154 16.3069C16.7093 16.1236 17.1582 15.8366 17.5318 15.4653C17.9054 15.0939 18.1951 14.6468 18.3814 14.1541C18.5677 13.6614 18.6462 13.1344 18.6117 12.6088V7.08578C18.6457 6.55963 18.5663 6.03233 18.3791 5.53945C18.1919 5.04657 17.9012 4.59957 17.5265 4.22861C17.1519 3.85765 16.702 3.57136 16.2073 3.38905C15.7126 3.20674 15.1845 3.13265 14.6587 3.17178H5.35874C4.83344 3.13355 4.30605 3.20831 3.81207 3.39103C3.31809 3.57374 2.86899 3.86017 2.495 4.23103C2.12101 4.60189 1.83082 5.04857 1.64397 5.541C1.45711 6.03343 1.37793 6.56017 1.41174 7.08578ZM9.05874 13.0778C9.05874 12.9196 9.10566 12.7649 9.19357 12.6333C9.28147 12.5018 9.40641 12.3992 9.5526 12.3387C9.69878 12.2781 9.85963 12.2623 10.0148 12.2931C10.17 12.324 10.3125 12.4002 10.4244 12.5121C10.5363 12.624 10.6125 12.7665 10.6434 12.9217C10.6742 13.0769 10.6584 13.2377 10.5978 13.3839C10.5373 13.5301 10.4348 13.655 10.3032 13.743C10.1716 13.8309 10.017 13.8778 9.85874 13.8778C9.75301 13.8783 9.64822 13.8579 9.55044 13.8177C9.45265 13.7774 9.36381 13.7182 9.28905 13.6435C9.21428 13.5687 9.15508 13.4799 9.11486 13.3821C9.07465 13.2843 9.05421 13.1795 9.05474 13.0738L9.05874 13.0778ZM9.31174 10.7018V10.5078C9.32249 10.1411 9.42774 9.78332 9.6173 9.4692C9.80686 9.15508 10.0743 8.89522 10.3937 8.71478C10.7447 8.47778 10.8557 8.32478 10.8557 8.08578C10.8482 7.86631 10.7557 7.65835 10.5978 7.50576C10.4399 7.35317 10.2288 7.26788 10.0092 7.26788C9.78964 7.26788 9.57863 7.35317 9.4207 7.50576C9.26277 7.65835 9.17029 7.86631 9.16274 8.08578C9.16274 8.27143 9.08899 8.44948 8.95772 8.58075C8.82644 8.71203 8.64839 8.78578 8.46274 8.78578C8.27709 8.78578 8.09904 8.71203 7.96777 8.58075C7.83649 8.44948 7.76274 8.27143 7.76274 8.08578C7.76274 7.49116 7.99895 6.9209 8.41941 6.50044C8.83986 6.07999 9.41013 5.84378 10.0047 5.84378C10.5994 5.84378 11.1696 6.07999 11.5901 6.50044C12.0105 6.9209 12.2467 7.49116 12.2467 8.08578C12.235 8.44714 12.1307 8.79945 11.9439 9.109C11.7571 9.41855 11.494 9.67499 11.1797 9.85378C10.8147 10.1038 10.7027 10.2538 10.7027 10.5078V10.7018C10.7027 10.8874 10.629 11.0655 10.4977 11.1968C10.3664 11.328 10.1884 11.4018 10.0027 11.4018C9.81709 11.4018 9.63904 11.328 9.50777 11.1968C9.37649 11.0655 9.30274 10.8874 9.30274 10.7018H9.31174Z" fill="#464646"/>
</g>
</svg>
