<svg width="57" height="56" viewBox="0 0 57 56" fill="none" xmlns="http://www.w3.org/2000/svg">
<path d="M25.5 38H31.5C36.5 38 38.5 36 38.5 31V25C38.5 20 36.5 18 31.5 18H25.5C20.5 18 18.5 20 18.5 25V31C18.5 36 20.5 38 25.5 38Z" stroke="white" stroke-width="1.5" stroke-linecap="round" stroke-linejoin="round"/>
<path d="M25.5 26C26.6046 26 27.5 25.1046 27.5 24C27.5 22.8954 26.6046 22 25.5 22C24.3954 22 23.5 22.8954 23.5 24C23.5 25.1046 24.3954 26 25.5 26Z" stroke="white" stroke-width="1.5" stroke-linecap="round" stroke-linejoin="round"/>
<path d="M19.17 34.9496L24.1 31.6396C24.89 31.1096 26.03 31.1696 26.74 31.7796L27.07 32.0696C27.85 32.7396 29.11 32.7396 29.89 32.0696L34.05 28.4996C34.83 27.8296 36.09 27.8296 36.87 28.4996L38.5 29.8996" stroke="white" stroke-width="1.5" stroke-linecap="round" stroke-linejoin="round"/>
<rect x="1.5" y="1" width="54" height="54" rx="27" stroke="#DADADA" stroke-width="2" stroke-linejoin="round"/>
</svg>
