<svg width="50" height="50" viewBox="0 0 50 50" fill="none" xmlns="http://www.w3.org/2000/svg">
<g id="Group 1171274776">
<path id="Ellipse 73" d="M25 50C38.8071 50 50 38.8071 50 25C50 11.1929 38.8071 0 25 0C11.1929 0 0 11.1929 0 25C0 38.8071 11.1929 50 25 50Z" fill="#E8F6FF"/>
<path id="Union 33" d="M22.3091 33.8936C21.8749 33.463 21.5513 32.934 21.3652 32.3516C20.1994 32.1615 19.0503 31.8803 17.9282 31.5112C17.5263 31.3981 17.1568 31.1919 16.8496 30.9092C16.5424 30.6265 16.3058 30.2754 16.1597 29.8843C16.0136 29.4932 15.9617 29.0731 16.0083 28.6582C16.0549 28.2433 16.199 27.8455 16.4282 27.4966L17.6143 25.5366C17.9061 24.9972 18.073 24.3992 18.103 23.7866V21.8477C18.103 20.0139 18.8313 18.2551 20.1279 16.9585C21.4246 15.6619 23.1834 14.9336 25.0171 14.9336C26.8508 14.9336 28.6091 15.6619 29.9058 16.9585C31.2024 18.2551 31.9312 20.0139 31.9312 21.8477V23.7886C31.9636 24.4002 32.1297 24.9972 32.418 25.5376L33.604 27.4976C33.8182 27.8496 33.9496 28.2455 33.9883 28.6558C34.0269 29.066 33.9718 29.4794 33.8271 29.8652C33.6823 30.2514 33.4525 30.6003 33.1548 30.8857C32.8571 31.1712 32.4989 31.3862 32.1069 31.5146C30.9702 31.889 29.8056 32.1722 28.624 32.3623C28.3778 33.1298 27.8938 33.7991 27.2422 34.2734C26.5906 34.7478 25.805 35.0029 24.999 35.0015C23.9919 34.9985 23.0261 34.6008 22.3091 33.8936ZM23.2969 32.9136C23.7505 33.3597 24.3608 33.6106 24.9971 33.6133C25.3911 33.6145 25.7793 33.5195 26.1279 33.3359C26.4766 33.1524 26.7751 32.8861 26.9971 32.5605C26.3417 32.6172 25.6836 32.6455 25.0229 32.6455C24.3489 32.6455 23.6771 32.616 23.0078 32.5566C23.0931 32.6847 23.1906 32.8042 23.2988 32.9136H23.2969ZM19.4971 21.8467V23.7856C19.4685 24.6504 19.2329 25.4956 18.8101 26.2505L17.6279 28.2056C17.505 28.3757 17.4262 28.5733 17.3979 28.7812C17.3697 28.9892 17.3931 29.2012 17.4663 29.3979C17.5395 29.5947 17.6601 29.7702 17.8174 29.9092C17.9747 30.0481 18.1639 30.1459 18.3682 30.1943C22.6851 31.6161 27.3442 31.6161 31.6611 30.1943C31.8553 30.1313 32.0324 30.0255 32.1797 29.8843C32.327 29.743 32.4406 29.5702 32.5117 29.3789C32.5828 29.1876 32.6097 28.9825 32.5903 28.7793C32.571 28.5761 32.5058 28.38 32.3999 28.2056L31.2158 26.2476C30.7962 25.4921 30.5608 24.6483 30.5288 23.7847V21.8457C30.5288 20.3828 29.948 18.9793 28.9136 17.9448C27.8791 16.9104 26.4761 16.3296 25.0132 16.3296C23.5502 16.3296 22.1472 16.9104 21.1128 17.9448C20.0783 18.9793 19.4971 20.3837 19.4971 21.8467ZM24.29 22.8726V19.7954C24.29 19.6098 24.3638 19.4316 24.4951 19.3003C24.6264 19.169 24.8046 19.0957 24.9902 19.0957C25.1759 19.0957 25.3536 19.169 25.4849 19.3003C25.6161 19.4316 25.6899 19.6098 25.6899 19.7954V22.8726C25.6899 23.0582 25.6161 23.2364 25.4849 23.3677C25.3536 23.499 25.1759 23.5723 24.9902 23.5723C24.8046 23.5723 24.6264 23.499 24.4951 23.3677C24.3638 23.2364 24.29 23.0582 24.29 22.8726Z" fill="black"/>
</g>
</svg>
