<svg width="20" height="21" viewBox="0 0 20 21" fill="none" xmlns="http://www.w3.org/2000/svg">
<g id="vuesax/linear/translate">
<g id="translate">
<path id="Vector" d="M15.8833 15.8312L14.1 12.2729L12.3167 15.8312" stroke="#464646" stroke-width="1.2" stroke-linecap="round" stroke-linejoin="round"/>
<path id="Vector_2" d="M12.6416 15.1978H15.5749" stroke="#464646" stroke-linecap="round" stroke-linejoin="round"/>
<path id="Vector_3" d="M14.1 18.6063C11.7667 18.6063 9.8667 16.7146 9.8667 14.3729C9.8667 12.0396 11.7584 10.1396 14.1 10.1396C16.4334 10.1396 18.3334 12.0313 18.3334 14.3729C18.3334 16.7146 16.4417 18.6063 14.1 18.6063Z" stroke="#464646" stroke-width="1.2" stroke-linecap="round" stroke-linejoin="round"/>
<path id="Vector_4" d="M4.18342 1.93945H7.45008C9.17508 1.93945 10.0084 2.7728 9.96675 4.45614V7.72279C10.0084 9.44779 9.17508 10.2811 7.45008 10.2395H4.18342C2.50008 10.2728 1.66675 9.43945 1.66675 7.71445V4.44779C1.66675 2.77279 2.50008 1.93945 4.18342 1.93945Z" stroke="#464646" stroke-width="1.2" stroke-linecap="round" stroke-linejoin="round"/>
<g id="Group">
<path id="Vector_5" d="M7.50833 5.14795H4.125" stroke="#464646" stroke-width="1.2" stroke-linecap="round" stroke-linejoin="round"/>
<path id="Vector_6" d="M5.80835 4.58105V5.14772" stroke="#464646" stroke-width="1.2" stroke-linecap="round" stroke-linejoin="round"/>
<path id="Vector_7" d="M6.65837 5.13965C6.65837 6.59798 5.5167 7.7813 4.1167 7.7813" stroke="#464646" stroke-width="1.2" stroke-linecap="round" stroke-linejoin="round"/>
<path id="Vector_8" d="M7.50846 7.78113C6.90012 7.78113 6.35013 7.45612 5.9668 6.93945" stroke="#464646" stroke-width="1.2" stroke-linecap="round" stroke-linejoin="round"/>
</g>
<g id="Group_2">
<path id="Vector_9" d="M1.66675 12.7729C1.66675 15.9979 4.27508 18.6063 7.50008 18.6063L6.62508 17.1479" stroke="#464646" stroke-width="1.2" stroke-linecap="round" stroke-linejoin="round"/>
<path id="Vector_10" d="M18.3333 7.77279C18.3333 4.54779 15.725 1.93945 12.5 1.93945L13.375 3.39779" stroke="#464646" stroke-width="1.2" stroke-linecap="round" stroke-linejoin="round"/>
</g>
</g>
</g>
</svg>
