<svg width="21" height="21" viewBox="0 0 21 21" fill="none" xmlns="http://www.w3.org/2000/svg">
<g id="vuesax/linear/award">
<g id="award">
<path id="Vector" d="M3.56958 9.34392V13.5084C3.56958 15.0334 3.56958 15.0334 5.0108 16.0054L8.97414 18.2929C9.56906 18.6364 10.541 18.6364 11.136 18.2929L15.0993 16.0054C16.5405 15.0334 16.5405 15.0334 16.5405 13.5084V9.34392C16.5405 7.81891 16.5405 7.81891 15.0993 6.84693L11.136 4.55942C10.541 4.21587 9.56906 4.21587 8.97414 4.55942L5.0108 6.84693C3.56958 7.81891 3.56958 7.81891 3.56958 9.34392Z" stroke="#464646" stroke-width="1.5" stroke-linecap="round" stroke-linejoin="round"/>
<path id="Vector_2" d="M14.6636 6.50312V4.29939C14.6636 2.62356 13.8257 1.78564 12.1499 1.78564H7.96028C6.28445 1.78564 5.44653 2.62356 5.44653 4.29939V6.44446" stroke="#464646" stroke-width="1.5" stroke-linecap="round" stroke-linejoin="round"/>
<path id="Vector_3" d="M10.583 9.31836L11.0606 10.0641C11.136 10.1814 11.3036 10.2987 11.4292 10.3322L12.2839 10.5501C12.8118 10.6842 12.9543 11.1366 12.6107 11.5556L12.0493 12.2343C11.9655 12.3432 11.8985 12.536 11.9069 12.67L11.9571 13.5498C11.9907 14.0945 11.6052 14.371 11.1025 14.1699L10.2813 13.8431C10.1556 13.7928 9.94614 13.7928 9.82045 13.8431L8.99929 14.1699C8.49654 14.371 8.1111 14.0861 8.14462 13.5498L8.19489 12.67C8.20327 12.536 8.13624 12.3349 8.05244 12.2343L7.49104 11.5556C7.14749 11.1366 7.28994 10.6842 7.81783 10.5501L8.6725 10.3322C8.80657 10.2987 8.97415 10.173 9.04119 10.0641L9.5188 9.31836C9.82045 8.86589 10.2897 8.86589 10.583 9.31836Z" stroke="#464646" stroke-width="1.5" stroke-linecap="round" stroke-linejoin="round"/>
</g>
</g>
</svg>
