<svg width="20" height="21" viewBox="0 0 20 21" fill="none" xmlns="http://www.w3.org/2000/svg">
<g id="vuesax/linear/lock">
<g id="lock">
<path id="Vector" d="M5 8.76921V7.10254C5 4.34421 5.83333 2.10254 10 2.10254C14.1667 2.10254 15 4.34421 15 7.10254V8.76921" stroke="#464646" stroke-width="1.5" stroke-linecap="round" stroke-linejoin="round"/>
<path id="Vector_2" d="M10.0001 15.8527C11.1507 15.8527 12.0834 14.92 12.0834 13.7694C12.0834 12.6188 11.1507 11.686 10.0001 11.686C8.84949 11.686 7.91675 12.6188 7.91675 13.7694C7.91675 14.92 8.84949 15.8527 10.0001 15.8527Z" stroke="#464646" stroke-width="1.5" stroke-linecap="round" stroke-linejoin="round"/>
<path id="Vector_3" d="M14.1667 18.7695H5.83341C2.50008 18.7695 1.66675 17.9362 1.66675 14.6029V12.9362C1.66675 9.60286 2.50008 8.76953 5.83341 8.76953H14.1667C17.5001 8.76953 18.3334 9.60286 18.3334 12.9362V14.6029C18.3334 17.9362 17.5001 18.7695 14.1667 18.7695Z" stroke="#464646" stroke-width="1.5" stroke-linecap="round" stroke-linejoin="round"/>
</g>
</g>
</svg>
