<svg width="20" height="21" viewBox="0 0 20 21" fill="none" xmlns="http://www.w3.org/2000/svg">
<path id="Union 63" d="M13.034 20.7856C11.3211 20.9221 9.61352 20.4629 8.20004 19.4856C7.60007 18.9554 7.11716 18.3059 6.78211 17.5786C6.44706 16.8514 6.26722 16.0623 6.25404 15.2616C6.24208 15.0717 6.30456 14.8846 6.42824 14.7399C6.55192 14.5953 6.72707 14.5045 6.91656 14.4868C7.10605 14.4691 7.29498 14.5259 7.44329 14.6452C7.59161 14.7644 7.68764 14.9368 7.71104 15.1256C7.70857 15.7301 7.83174 16.3284 8.07274 16.8827C8.31375 17.437 8.66732 17.9352 9.11104 18.3456C10.272 19.0971 11.6501 19.4408 13.028 19.3226H13.155C15.18 19.3226 16.505 18.9406 17.327 18.1226C18.149 17.3046 18.527 15.9796 18.527 13.9586V7.61164C18.527 5.59064 18.144 4.26764 17.327 3.44764C16.51 2.62764 15.18 2.24764 13.155 2.24764H13.028C11.6421 2.12671 10.2558 2.4754 9.09204 3.23764C8.64579 3.65795 8.29166 4.16632 8.05205 4.73057C7.81244 5.29482 7.69257 5.90267 7.70004 6.51564C7.66974 6.69769 7.57179 6.86157 7.42582 6.97447C7.27984 7.08738 7.0966 7.14098 6.91279 7.12455C6.72897 7.10811 6.55815 7.02286 6.43452 6.88584C6.31088 6.74883 6.24356 6.57018 6.24604 6.38564C6.58104 2.51364 8.67404 0.785645 13.034 0.785645H13.161C15.599 0.785645 17.254 1.30364 18.367 2.41464C19.48 3.52564 20 5.17764 20 7.61164V13.9596C20 16.3936 19.481 18.0446 18.367 19.1596C17.253 20.2746 15.6 20.7856 13.161 20.7856H13.034ZM3.48204 14.5536L0.214039 11.2926C0.146189 11.2249 0.0923601 11.1445 0.0556325 11.056C0.0189049 10.9674 0 10.8725 0 10.7766C0 10.6808 0.0189049 10.5859 0.0556325 10.4973C0.0923601 10.4088 0.146189 10.3284 0.214039 10.2606L3.48204 6.99764C3.61902 6.86026 3.80497 6.78292 3.99898 6.78264C4.19298 6.78236 4.37916 6.85916 4.51654 6.99614C4.65392 7.13313 4.73126 7.31908 4.73154 7.51308C4.73182 7.70709 4.65502 7.89326 4.51804 8.03064L2.50004 10.0456H12.927C13.1206 10.0456 13.3063 10.1226 13.4432 10.2595C13.5801 10.3964 13.657 10.582 13.657 10.7756C13.657 10.9693 13.5801 11.1549 13.4432 11.2918C13.3063 11.4287 13.1206 11.5056 12.927 11.5056H2.50004L4.52004 13.5216C4.65158 13.66 4.7238 13.8442 4.72127 14.0351C4.71874 14.226 4.64165 14.4083 4.50648 14.543C4.37131 14.6778 4.18879 14.7544 3.99792 14.7564C3.80705 14.7583 3.62297 14.6856 3.48504 14.5536H3.48204Z" fill="#464646"/>
</svg>
