<svg width="18" height="18" viewBox="0 0 18 18" fill="none" xmlns="http://www.w3.org/2000/svg">
<path id="map" d="M1.71047 16.4948L1.70432 16.4983L1.69829 16.502C1.4014 16.6849 1.25036 16.7266 1.11563 16.7266C0.874581 16.7266 0.73849 16.6535 0.66003 16.5703C0.57803 16.4834 0.5 16.3225 0.5 16.04V4.21875C0.5 3.94919 0.550868 3.75338 0.635408 3.60057C0.719485 3.4486 0.85551 3.30541 1.07932 3.16988L1.07932 3.16988L1.08052 3.16914L5.13287 0.699416L5.13288 0.699443L5.13766 0.69646C5.34787 0.565076 5.59113 0.5 5.84062 0.5C6.08691 0.5 6.33121 0.567902 6.56598 0.712672L10.8603 3.48735L11.1208 3.65569L11.3874 3.49703L15.5185 1.03806C15.8522 0.846424 15.9946 0.798828 16.1191 0.798828C16.3515 0.798828 16.4856 0.871148 16.5648 0.956514C16.6484 1.04652 16.7266 1.21152 16.7266 1.49414V13.2979C16.7266 13.5702 16.6767 13.7726 16.5919 13.931C16.5083 14.0871 16.3742 14.2318 16.1554 14.3643L12.0791 16.8249L12.079 16.8247L12.0689 16.8312C11.852 16.9694 11.6103 17.0342 11.3531 17.0342C11.0945 17.0342 10.8211 16.9639 10.5501 16.8054C10.5494 16.8049 10.5487 16.8045 10.548 16.8041L6.20464 14.1963L5.95218 14.0448L5.69718 14.192L1.71047 16.4948ZM5.46279 13.4826L5.70898 13.3375V13.0518V2.05664V1.22155L4.97287 1.6159L4.96548 1.61986C4.87396 1.66888 4.77478 1.722 4.66604 1.79534L1.5746 3.71434C1.57445 3.71444 1.5743 3.71453 1.57415 3.71462C1.41497 3.8131 1.26971 3.94365 1.17055 4.12612C1.072 4.30745 1.04219 4.49745 1.04219 4.67578V14.8887C1.04219 15.0057 1.06384 15.1717 1.16949 15.3226C1.29262 15.4985 1.48631 15.5908 1.68984 15.5908C1.80829 15.5908 1.90312 15.5547 1.94393 15.5383C1.9768 15.5251 2.01934 15.5051 2.03806 15.4963C2.04179 15.4945 2.04457 15.4932 2.04615 15.4925L2.06933 15.4818L2.0913 15.4689L5.46279 13.4826ZM6.26758 13.0957V13.3785L6.51 13.5243L9.87156 15.5447C9.99129 15.618 10.1021 15.6819 10.207 15.7424L10.2091 15.7436L10.959 16.1763V15.3105V4.64062V4.36859L10.7306 4.22082L7.29347 1.99718L7.29225 1.9964C7.19854 1.93616 7.09683 1.87674 7.00369 1.82684L6.26758 1.43249V2.26758V13.0957ZM11.5258 15.4336V16.2426L12.2494 15.8808C12.3944 15.8083 12.5415 15.7192 12.6702 15.6366L15.6492 13.7864C15.8114 13.6891 15.9606 13.5589 16.0623 13.3735C16.1638 13.1884 16.1926 12.9943 16.1926 12.8145V2.6543C16.1926 2.50427 16.1492 2.33419 16.0297 2.1925C15.9042 2.04356 15.7222 1.96094 15.5285 1.96094C15.3704 1.96094 15.2328 2.01859 15.1382 2.07716L11.7737 4.04186L11.5258 4.1866V4.47363V15.4336Z" stroke="#9B9B9B"/>
</svg>
