<svg width="21" height="21" viewBox="0 0 21 21" fill="none" xmlns="http://www.w3.org/2000/svg">
<path d="M13.4066 7.53267V17.0514C13.4066 18.2664 12.5352 18.7775 11.471 18.191L8.17802 16.3559C7.8261 16.1632 7.2563 16.1632 6.90437 16.3559L3.61137 18.191C2.54721 18.7775 1.67578 18.2664 1.67578 17.0514V7.53267C1.67578 6.09983 2.84885 4.92676 4.28169 4.92676H10.8007C12.2335 4.92676 13.4066 6.09983 13.4066 7.53267Z" stroke="#464646" stroke-width="1.5" stroke-linecap="round" stroke-linejoin="round"/>
<path d="M18.4342 4.28169V13.8004C18.4342 15.0154 17.5628 15.5265 16.4986 14.94L13.4067 13.2139V7.53281C13.4067 6.09997 12.2336 4.9269 10.8008 4.9269H6.70337V4.28169C6.70337 2.84885 7.87644 1.67578 9.30928 1.67578H15.8283C17.2611 1.67578 18.4342 2.84885 18.4342 4.28169Z" stroke="#464646" stroke-width="1.5" stroke-linecap="round" stroke-linejoin="round"/>
<path d="M5.86548 10.0552H9.21715" stroke="#464646" stroke-width="1.5" stroke-linecap="round" stroke-linejoin="round"/>
<path d="M7.54126 11.7311V8.37939" stroke="#464646" stroke-width="1.5" stroke-linecap="round" stroke-linejoin="round"/>
</svg>
