<svg width="81" height="80" viewBox="0 0 81 80" fill="none" xmlns="http://www.w3.org/2000/svg">
<path d="M81 40C81 62.0914 63.0914 80 41 80C18.9086 80 1 62.0914 1 40C1 17.9086 18.9086 0 41 0C63.0914 0 81 17.9086 81 40ZM3.98943 40C3.98943 60.4404 20.5596 77.0106 41 77.0106C61.4404 77.0106 78.0106 60.4404 78.0106 40C78.0106 19.5596 61.4404 2.98943 41 2.98943C20.5596 2.98943 3.98943 19.5596 3.98943 40Z" fill="#D8E2DC"/>
<circle cx="41" cy="40" r="30" fill="#FF2828"/>
<path d="M39 50.2781V29.7219C39 27.7719 38.5588 27 37.4338 27H34.5662C33.4412 27 33 27.7719 33 29.7219V50.2781C33 52.2281 33.4412 53 34.5662 53H37.4118C38.5588 53 39 52.2281 39 50.2781Z" fill="white" stroke="white" stroke-width="1.5" stroke-linecap="round" stroke-linejoin="round"/>
<path d="M49 50.2781V29.7219C49 27.7719 48.5572 27 47.428 27H44.572C43.4428 27 43 27.7719 43 29.7219V50.2781C43 52.2281 43.4428 53 44.572 53H47.428C48.5572 53 49 52.2281 49 50.2781Z" fill="white" stroke="white" stroke-width="1.5" stroke-linecap="round" stroke-linejoin="round"/>
</svg>
