<svg width="49" height="49" viewBox="0 0 49 49" fill="none" xmlns="http://www.w3.org/2000/svg">
<g id="Group 770716">
<g id="Group 240">
<path id="Rectangle 1299" d="M35 0H14C6.26801 0 0 6.26801 0 14V35C0 42.732 6.26801 49 14 49H35C42.732 49 49 42.732 49 35V14C49 6.26801 42.732 0 35 0Z" fill="#00CBFF"/>
<path id="Union 25" d="M15.38 34C14.9364 34.0003 14.4971 33.9131 14.0871 33.7436C13.6772 33.5741 13.3047 33.3255 12.9908 33.012C12.6769 32.6985 12.4279 32.3263 12.2579 31.9166C12.0879 31.5068 12.0003 31.0676 12 30.624V20.753C12.0003 20.3094 12.0879 19.8702 12.2579 19.4604C12.4279 19.0507 12.6769 18.6785 12.9908 18.365C13.3047 18.0515 13.6772 17.8029 14.0871 17.6334C14.4971 17.4639 14.9364 17.3767 15.38 17.377H19.28C19.2801 16.9333 19.3677 16.494 19.5376 16.0841C19.7076 15.6743 19.9566 15.3019 20.2705 14.9883C20.5843 14.6747 20.9569 14.426 21.3669 14.2565C21.7769 14.0869 22.2163 13.9997 22.66 14H27.34C27.7837 13.9997 28.2231 14.0869 28.6331 14.2565C29.0431 14.426 29.4157 14.6747 29.7295 14.9883C30.0434 15.3019 30.2924 15.6743 30.4624 16.0841C30.6323 16.494 30.7199 16.9333 30.72 17.377H34.62C35.0636 17.3767 35.5029 17.4639 35.9129 17.6334C36.3228 17.8029 36.6953 18.0515 37.0092 18.365C37.3231 18.6785 37.5721 19.0507 37.7421 19.4604C37.9121 19.8702 37.9997 20.3094 38 20.753V30.623C37.9999 31.0667 37.9123 31.506 37.7424 31.9159C37.5724 32.3257 37.3234 32.6981 37.0095 33.0117C36.6957 33.3253 36.3231 33.574 35.9131 33.7435C35.5031 33.9131 35.0637 34.0003 34.62 34H15.38ZM19.02 25.688C19.0188 26.871 19.3685 28.0277 20.0249 29.0119C20.6813 29.9961 21.6148 30.7635 22.7074 31.2171C23.8 31.6706 25.0026 31.7899 26.163 31.5598C27.3234 31.3298 28.3895 30.7607 29.2264 29.9246C30.0633 29.0885 30.6334 28.023 30.8647 26.8628C31.0959 25.7027 30.9778 24.5 30.5254 23.4069C30.0729 22.3139 29.3065 21.3796 28.3229 20.7222C27.3394 20.0649 26.183 19.714 25 19.714C23.4154 19.7151 21.8959 20.3446 20.7748 21.4645C19.6537 22.5845 19.0226 24.1034 19.02 25.688ZM21.62 25.688C21.6194 25.0194 21.8171 24.3656 22.1882 23.8094C22.5592 23.2531 23.0869 22.8194 23.7044 22.5632C24.322 22.3069 25.0017 22.2395 25.6576 22.3696C26.3134 22.4997 26.916 22.8213 27.389 23.2939C27.862 23.7665 28.1842 24.3688 28.3148 25.0245C28.4455 25.6802 28.3787 26.36 28.123 26.9778C27.8673 27.5956 27.434 28.1236 26.8781 28.4952C26.3222 28.8667 25.6686 29.065 25 29.065C24.1042 29.0645 23.2453 28.7086 22.6116 28.0755C21.978 27.4424 21.6213 26.5837 21.62 25.688Z" fill="white"/>
</g>
</g>
</svg>
