<svg width="50" height="50" viewBox="0 0 50 50" fill="none" xmlns="http://www.w3.org/2000/svg">
<g id="Group 770753">
<path id="Ellipse 89" d="M25 50C38.8071 50 50 38.8071 50 25C50 11.1929 38.8071 0 25 0C11.1929 0 0 11.1929 0 25C0 38.8071 11.1929 50 25 50Z" fill="#7FCDFF"/>
<path id="Path 10" d="M25 29.467C30.423 29.467 35 30.348 35 33.748C35 37.148 30.393 38 25 38C19.578 38 15 37.119 15 33.719C15 30.319 19.607 29.467 25 29.467ZM25 13C26.308 13.0006 27.5865 13.389 28.6737 14.1162C29.761 14.8433 30.6083 15.8765 31.1084 17.0851C31.6085 18.2937 31.7391 19.6234 31.4835 20.9062C31.228 22.189 30.5978 23.3672 29.6727 24.2919C28.7476 25.2166 27.5691 25.8462 26.2862 26.1012C25.0033 26.3561 23.6736 26.225 22.4652 25.7243C21.2569 25.2236 20.2241 24.3759 19.4975 23.2883C18.7708 22.2007 18.383 20.922 18.383 19.614C18.3801 18.7444 18.5493 17.8828 18.8808 17.0788C19.2124 16.2749 19.6997 15.5445 20.3148 14.9297C20.9298 14.3149 21.6605 13.8279 22.4646 13.4967C23.2687 13.1655 24.1304 12.9967 25 13Z" fill="white"/>
</g>
</svg>
