<svg width="21" height="21" viewBox="0 0 21 21" fill="none" xmlns="http://www.w3.org/2000/svg">
<path id="Union 58" d="M4.36601 20.8193L2.34101 20.5383C1.84735 20.4506 1.39233 20.214 1.03699 19.8602C0.681647 19.5065 0.442981 19.0526 0.353008 18.5593C0.353008 18.5593 0.353008 18.5523 0.353008 18.5493L0.073008 16.5233C0.0382836 16.1681 0.0777785 15.8095 0.188986 15.4704C0.300194 15.1313 0.480686 14.819 0.719008 14.5533L0.727008 14.5453L4.80801 10.4603C4.39324 8.81582 4.52935 7.0807 5.19547 5.52101C5.86159 3.96133 7.02094 2.66322 8.49572 1.82574C9.9705 0.988271 11.6793 0.657686 13.36 0.884686C15.0407 1.11169 16.6005 1.88374 17.8003 3.08244C19.0001 4.28114 19.7735 5.8403 20.002 7.52081C20.2305 9.20132 19.9014 10.9104 19.0653 12.3859C18.2291 13.8614 16.932 15.0219 15.3729 15.6894C13.8139 16.3569 12.0788 16.4946 10.434 16.0813L6.34501 20.1633C5.88304 20.5935 5.27627 20.8344 4.64501 20.8383C4.55168 20.8384 4.45846 20.8321 4.36601 20.8193ZM7.83001 4.0883C7.01033 4.90513 6.43 5.93085 6.15199 7.05415C5.87399 8.17746 5.90892 9.35544 6.25301 10.4603C6.29027 10.5818 6.29376 10.7111 6.26311 10.8344C6.23246 10.9578 6.16882 11.0704 6.07901 11.1603L1.71501 15.5273C1.53442 15.7539 1.44079 16.0377 1.45101 16.3273C1.45139 16.3293 1.45139 16.3313 1.45101 16.3333L1.73001 18.3553C1.77461 18.551 1.87322 18.7303 2.01464 18.8728C2.15606 19.0153 2.33461 19.1152 2.53001 19.1613L4.55701 19.4413H4.56301C4.5895 19.4452 4.61623 19.4472 4.64301 19.4473C4.89868 19.4432 5.14544 19.3526 5.34301 19.1903L5.35301 19.1783L6.45301 18.0783L4.80801 16.4383C4.73343 16.376 4.67264 16.2988 4.62951 16.2117C4.58639 16.1246 4.56188 16.0295 4.55754 15.9324C4.5532 15.8353 4.56912 15.7384 4.6043 15.6478C4.63948 15.5572 4.69314 15.4749 4.76186 15.4062C4.83059 15.3374 4.91287 15.2838 5.00347 15.2486C5.09407 15.2134 5.19101 15.1975 5.2881 15.2018C5.3852 15.2062 5.48032 15.2307 5.56742 15.2738C5.65452 15.3169 5.73169 15.3777 5.79401 15.4523L7.44201 17.1003L9.74201 14.8093C9.83212 14.7198 9.94486 14.6566 10.0682 14.6263C10.1915 14.596 10.3207 14.5998 10.442 14.6373C11.3147 14.9081 12.2355 14.9872 13.1416 14.8691C14.0476 14.751 14.9174 14.4385 15.6915 13.953C16.4655 13.4675 17.1256 12.8205 17.6264 12.0563C18.1272 11.292 18.4569 10.4286 18.593 9.52509C18.7291 8.62158 18.6684 7.69933 18.415 6.82146C18.1616 5.94359 17.7215 5.13085 17.1249 4.43886C16.5282 3.74687 15.7891 3.19197 14.958 2.81216C14.127 2.43236 13.2237 2.2366 12.31 2.2383C11.478 2.23516 10.6537 2.39705 9.88472 2.7146C9.11573 3.03215 8.41736 3.49906 7.83001 4.0883ZM10.285 8.5073C10.285 8.09334 10.4078 7.68868 10.6377 7.34449C10.8677 7.0003 11.1946 6.73203 11.5771 6.57362C11.9595 6.4152 12.3803 6.37375 12.7863 6.45451C13.1923 6.53527 13.5653 6.73461 13.858 7.02732C14.1507 7.32003 14.35 7.69297 14.4308 8.09897C14.5116 8.50498 14.4701 8.92581 14.3117 9.30825C14.1533 9.6907 13.885 10.0176 13.5408 10.2476C13.1966 10.4775 12.792 10.6003 12.378 10.6003C11.8237 10.5982 11.2926 10.377 10.9007 9.98488C10.5088 9.5928 10.2869 9.06166 10.285 8.5073ZM11.685 8.5073C11.685 8.64574 11.7261 8.78108 11.803 8.8962C11.8799 9.01131 11.9892 9.10103 12.1171 9.15401C12.245 9.207 12.3858 9.22086 12.5216 9.19385C12.6574 9.16684 12.7821 9.10017 12.88 9.00227C12.9779 8.90438 13.0445 8.77965 13.0716 8.64386C13.0986 8.50807 13.0847 8.36733 13.0317 8.23942C12.9787 8.11151 12.889 8.00219 12.7739 7.92527C12.6588 7.84835 12.5235 7.8073 12.385 7.8073C12.2927 7.80677 12.2013 7.82449 12.1159 7.85943C12.0305 7.89437 11.9529 7.94585 11.8874 8.0109C11.822 8.07596 11.7701 8.1533 11.7347 8.23849C11.6992 8.32368 11.681 8.41504 11.681 8.5073H11.685Z" fill="#464646"/>
</svg>
