<svg width="49" height="49" viewBox="0 0 49 49" fill="none" xmlns="http://www.w3.org/2000/svg">
<g id="Group 770718">
<path id="Rectangle 1300" d="M35 0H14C6.26801 0 0 6.26801 0 14V35C0 42.732 6.26801 49 14 49H35C42.732 49 49 42.732 49 35V14C49 6.26801 42.732 0 35 0Z" fill="#00CBFF"/>
<g id="Group 239">
<path id="Path 59" d="M33.275 15H15.349C14.726 15 14.1285 15.2475 13.688 15.688C13.2475 16.1285 13 16.726 13 17.349V28.949L14.74 27.687L21.188 23C21.3731 22.865 21.6041 22.8085 21.8306 22.8428C22.0572 22.8771 22.261 22.9993 22.398 23.183L24.46 25.933L28.976 22.165C29.0663 22.088 29.1719 22.0311 29.2859 21.9982C29.3999 21.9652 29.5196 21.957 29.637 21.974C29.7557 21.987 29.8704 22.0247 29.9737 22.0847C30.0771 22.1446 30.1667 22.2254 30.237 22.322L33.883 27.334L35.623 29.727V17.349C35.623 16.7262 35.3757 16.1289 34.9353 15.6884C34.495 15.2479 33.8978 15.0003 33.275 15ZM18.221 22.831C17.7048 22.831 17.2002 22.6779 16.771 22.3911C16.3417 22.1043 16.0072 21.6967 15.8097 21.2198C15.6121 20.7429 15.5604 20.2181 15.6612 19.7118C15.7619 19.2055 16.0104 18.7405 16.3755 18.3755C16.7405 18.0104 17.2055 17.7619 17.7118 17.6612C18.2181 17.5604 18.7429 17.6121 19.2198 17.8097C19.6967 18.0072 20.1043 18.3417 20.3911 18.771C20.6779 19.2002 20.831 19.7048 20.831 20.221C20.831 20.9132 20.556 21.5771 20.0665 22.0665C19.5771 22.556 18.9132 22.831 18.221 22.831Z" fill="white"/>
<path id="Path 60" d="M29.376 24.0928L24.869 27.8518C24.7769 27.9257 24.6711 27.9807 24.5576 28.0135C24.4442 28.0463 24.3253 28.0562 24.208 28.0428C24.0912 28.0303 23.9783 27.9938 23.8764 27.9354C23.7745 27.8771 23.6858 27.7982 23.616 27.7038L21.516 24.9108L14.74 29.8428L13 31.1068V31.7938C13 32.4168 13.2475 33.0142 13.688 33.4548C14.1285 33.8953 14.726 34.1428 15.349 34.1428H33.275C33.7693 34.1428 34.2508 33.9862 34.6505 33.6955C35.0503 33.4048 35.3476 32.995 35.5 32.5248L33.882 30.2968L29.376 24.0928Z" fill="white"/>
<path id="Ellipse 25" d="M18 21.144C18.5523 21.144 19 20.6963 19 20.144C19 19.5918 18.5523 19.144 18 19.144C17.4477 19.144 17 19.5918 17 20.144C17 20.6963 17.4477 21.144 18 21.144Z" fill="white"/>
</g>
</g>
</svg>
