<svg width="26" height="27" viewBox="0 0 26 27" fill="none" xmlns="http://www.w3.org/2000/svg">
<path d="M13.32 5.73712L12.427 7.22812C10.035 7.39322 7.79276 8.45239 6.146 10.1951L1 0.995117H9.53299C10.033 0.995117 10.14 1.25912 10.541 1.82312L13.32 5.73712Z" fill="#A7B1C9" stroke="#8A94AB" stroke-width="1.5" stroke-miterlimit="10" stroke-linejoin="round"/>
<path d="M25.0001 1L19.9 10.217C18.4345 8.65925 16.4853 7.64286 14.3691 7.33298C13.9357 7.25899 13.4975 7.21588 13.058 7.20398C12.832 7.20398 12.606 7.211 12.384 7.228L13.277 5.737L15.621 1.82797C16.021 1.26397 16.008 1 16.512 1H25.0001Z" fill="#A7B1C9" stroke="#8A94AB" stroke-width="1.5" stroke-miterlimit="10" stroke-linejoin="round"/>
<path d="M23 16.512C22.9977 18.3618 22.4554 20.1708 21.4397 21.7169C20.4239 23.2629 18.9788 24.4787 17.2818 25.2151C15.5848 25.9516 13.7097 26.1765 11.8867 25.8624C10.0637 25.5482 8.37209 24.7086 7.01946 23.4467C5.66683 22.1848 4.71203 20.5554 4.2723 18.7585C3.83256 16.9617 3.92703 15.0755 4.54405 13.3316C5.16108 11.5877 6.27385 10.0618 7.74578 8.94128C9.2177 7.82079 10.9847 7.15445 12.83 7.02399C13.051 7.00699 13.274 7 13.499 7C16.0199 7.00239 18.4367 8.00569 20.2181 9.78937C21.9995 11.573 22.9998 13.9911 22.999 16.512H23Z" fill="#A7B1C9" stroke="#8A94AB" stroke-width="1.5" stroke-linejoin="round"/>
<path d="M16.408 20.988L10.552 21V20.1L13.348 17.688C14.752 16.476 15.148 15.888 15.148 14.964C15.148 13.872 14.524 13.224 13.48 13.224C12.412 13.224 11.716 14.004 11.692 15.24H10.516C10.552 13.38 11.728 12.168 13.492 12.168C15.232 12.168 16.348 13.224 16.348 14.892C16.348 16.128 15.736 17.004 14.2 18.336L12.4 19.896H16.408V20.988Z" fill="white"/>
</svg>
