<svg width="32" height="34" viewBox="0 0 32 34" fill="none" xmlns="http://www.w3.org/2000/svg">
<path d="M16.44 6.93698L15.32 8.80499C12.322 9.01203 9.51181 10.3397 7.448 12.524L1 1H11.694C12.326 1 12.455 1.33099 12.957 2.03699L16.44 6.93698Z" fill="#00CBFF" stroke="#007E9E" stroke-width="2" stroke-miterlimit="10" stroke-linejoin="round"/>
<path d="M30.9999 1L24.6119 12.551C22.7751 10.5989 20.3321 9.3252 17.6799 8.93698C17.1368 8.84415 16.5877 8.79003 16.0369 8.77499C15.7529 8.77499 15.4709 8.784 15.1919 8.806L16.312 6.93799L19.2489 2.03799C19.7489 1.33199 19.7339 1.00098 20.3659 1.00098L30.9999 1Z" fill="#00CBFF" stroke="#007E9E" stroke-width="2" stroke-miterlimit="10" stroke-linejoin="round"/>
<path d="M27.7138 20.921C27.7014 23.2274 27.0165 25.4801 25.7431 27.4031C24.4698 29.3262 22.6631 30.8361 20.5446 31.748C18.426 32.6598 16.0876 32.934 13.8156 32.5369C11.5436 32.1398 9.43668 31.0887 7.75303 29.5123C6.06939 27.9359 4.88207 25.9027 4.3365 23.6617C3.79092 21.4207 3.91078 19.0692 4.68141 16.8953C5.45203 14.7214 6.83996 12.8194 8.67518 11.4224C10.5104 10.0254 12.7132 9.19398 15.0138 9.02997C15.2898 9.00897 15.5688 9 15.8488 9C17.446 8.99998 19.0267 9.32344 20.4955 9.95093C21.9642 10.5784 23.2907 11.4969 24.3948 12.651C26.5305 14.8738 27.7204 17.8385 27.7138 20.921Z" fill="#00CBFF" stroke="#007E9E" stroke-width="2" stroke-linejoin="round"/>
<path d="M15.618 17.11H13.49V15.878H16.934V26H15.618V17.11Z" fill="white"/>
</svg>
