<svg width="80" height="80" viewBox="0 0 80 80" fill="none" xmlns="http://www.w3.org/2000/svg">
<path d="M76.5 40.5C76.5 60.6584 60.1584 77 40 77C19.8416 77 3.5 60.6584 3.5 40.5C3.5 20.3416 19.8416 4 40 4C60.1584 4 76.5 20.3416 76.5 40.5ZM6.22786 40.5C6.22786 59.1518 21.3482 74.2721 40 74.2721C58.6518 74.2721 73.7721 59.1518 73.7721 40.5C73.7721 21.8482 58.6518 6.72786 40 6.72786C21.3482 6.72786 6.22786 21.8482 6.22786 40.5Z" fill="#989898"/>
<circle cx="40" cy="40" r="30" fill="#FF4949"/>
<path d="M33 40.5228V36.9628C33 32.5428 36.13 30.7328 39.96 32.9428L43.05 34.7228L46.14 36.5028C49.97 38.7128 49.97 42.3328 46.14 44.5428L43.05 46.3228L39.96 48.1028C36.13 50.3128 33 48.5028 33 44.0828V40.5228Z" stroke="white" stroke-width="2.5" stroke-miterlimit="10" stroke-linecap="round" stroke-linejoin="round"/>
</svg>
