<svg width="21" height="20" viewBox="0 0 21 20" fill="none" xmlns="http://www.w3.org/2000/svg">
<path id="Union 65" d="M6.13374 18.9291C5.96763 18.8471 5.84218 18.7058 5.78468 18.5359C5.72718 18.366 5.7423 18.1813 5.82674 18.022C5.86811 17.9434 5.92533 17.8733 5.99511 17.8159C6.06489 17.7584 6.14586 17.7147 6.23337 17.6872C6.32089 17.6597 6.41323 17.649 6.5051 17.6556C6.59697 17.6623 6.68656 17.6862 6.76874 17.726C7.79097 18.2226 8.9218 18.4811 10.0687 18.4803C11.1704 18.4852 12.2584 18.2469 13.2477 17.7842C13.3307 17.7457 13.4208 17.7233 13.5129 17.7182C13.6049 17.713 13.6971 17.7253 13.7842 17.7544C13.8713 17.7834 13.9515 17.8285 14.0202 17.8872C14.089 17.9459 14.1449 18.017 14.1847 18.0964C14.2661 18.2573 14.2777 18.4423 14.2171 18.6112C14.1564 18.7802 14.0283 18.9195 13.8607 18.9988C12.6803 19.5512 11.3823 19.8358 10.0677 19.8305C8.70025 19.831 7.35209 19.5221 6.13374 18.9291ZM13.4117 14.9072C13.4173 14.2851 13.6155 13.6786 13.9814 13.1639C14.3474 12.6492 14.8647 12.2495 15.4682 12.0151C16.0716 11.7807 16.7342 11.7221 17.3725 11.8467C18.0108 11.9713 18.5962 12.2735 19.0549 12.7152C19.5136 13.1569 19.8251 13.7184 19.9502 14.3289C20.0753 14.9395 20.0083 15.5716 19.7578 16.1459C19.5072 16.7201 19.0842 17.2107 18.5422 17.5557C18.0001 17.9008 17.3632 18.085 16.7117 18.085C15.8331 18.0807 14.9921 17.7437 14.3734 17.1479C13.7547 16.5521 13.4088 15.7462 13.4117 14.9072ZM14.8117 14.9072C14.8143 15.2655 14.9279 15.615 15.1382 15.9117C15.3486 16.2084 15.6462 16.439 15.9936 16.5745C16.341 16.7099 16.7226 16.744 17.0903 16.6726C17.458 16.6012 17.7953 16.4275 18.0598 16.1733C18.3242 15.919 18.5039 15.5958 18.5761 15.2442C18.6484 14.8926 18.61 14.5284 18.4658 14.1977C18.3217 13.8669 18.0781 13.5842 17.766 13.3854C17.4538 13.1866 17.087 13.0805 16.7117 13.0805C16.2062 13.0825 15.7222 13.276 15.366 13.6185C15.0097 13.961 14.8104 14.4245 14.8117 14.9072ZM0.0117372 14.9072C0.0090771 14.0683 0.355041 13.2627 0.973712 12.6671C1.59238 12.0715 2.43323 11.7346 3.31174 11.7303C4.19424 11.7303 5.04061 12.0651 5.66464 12.661C6.28866 13.2568 6.63924 14.065 6.63924 14.9077C6.63924 15.7503 6.28866 16.5585 5.66464 17.1544C5.04061 17.7502 4.19424 18.085 3.31174 18.085C2.43305 18.0807 1.59206 17.7437 0.973358 17.1479C0.354658 16.5521 0.00881167 15.7462 0.0117372 14.9072ZM1.41174 14.9072C1.4143 15.2655 1.52792 15.615 1.73825 15.9117C1.94857 16.2084 2.2462 16.439 2.5936 16.5745C2.941 16.7099 3.32261 16.744 3.69031 16.6726C4.05802 16.6012 4.39535 16.4275 4.65977 16.1733C4.92419 15.919 5.10386 15.5958 5.17612 15.2442C5.24839 14.8926 5.21001 14.5284 5.06583 14.1977C4.92165 13.8669 4.67812 13.5842 4.36596 13.3854C4.05379 13.1866 3.68697 13.0805 3.31174 13.0805C2.80614 13.0823 2.32198 13.2757 1.96569 13.6182C1.60939 13.9608 1.41014 14.4244 1.41174 14.9072ZM1.98574 11.2854C1.89361 11.2766 1.80423 11.2504 1.72277 11.2084C1.64131 11.1664 1.56939 11.1094 1.51117 11.0406C1.45295 10.9719 1.40958 10.8928 1.38359 10.8079C1.3576 10.7231 1.34949 10.6342 1.35974 10.5463C1.48598 9.35298 1.8774 8.1991 2.50786 7.16173C3.13832 6.12436 3.99331 5.22736 5.01574 4.53064C5.09093 4.47984 5.17589 4.44372 5.26574 4.42433C5.35558 4.40495 5.44855 4.40269 5.53932 4.41768C5.63008 4.43267 5.71685 4.46462 5.79466 4.5117C5.87247 4.55877 5.93978 4.62005 5.99274 4.69201C6.10028 4.83817 6.14307 5.01896 6.1118 5.19507C6.08052 5.37119 5.97773 5.52841 5.82574 5.63255C4.96687 6.21764 4.2486 6.97094 3.71885 7.84215C3.18911 8.71337 2.86008 9.68247 2.75374 10.6848C2.74577 10.7729 2.7194 10.8587 2.6762 10.937C2.633 11.0153 2.57383 11.0846 2.50217 11.1407C2.43052 11.1969 2.34783 11.2387 2.25896 11.2639C2.1701 11.2891 2.07686 11.297 1.98474 11.2873L1.98574 11.2854ZM17.3697 10.6427C17.2556 9.63645 16.9178 8.66502 16.3789 7.79341C15.84 6.92181 15.1124 6.17013 14.2447 5.58863C14.092 5.48519 13.9882 5.32841 13.9558 5.15231C13.9234 4.97621 13.9651 4.79502 14.0717 4.64808C14.1241 4.57565 14.1909 4.51381 14.2683 4.46609C14.3458 4.41837 14.4323 4.38573 14.523 4.37002C14.6137 4.35432 14.7067 4.35587 14.7967 4.37458C14.8868 4.3933 14.9721 4.42881 15.0477 4.47907C16.08 5.17137 16.9456 6.06615 17.5867 7.10358C18.2277 8.14101 18.6293 9.29717 18.7647 10.4947C18.7759 10.5826 18.7686 10.6717 18.7434 10.7569C18.7181 10.8421 18.6755 10.9216 18.6178 10.9909C18.5601 11.0602 18.4886 11.1178 18.4074 11.1605C18.3262 11.2032 18.2369 11.2301 18.1447 11.2395C18.1187 11.2395 18.0927 11.2395 18.0677 11.2395C17.8952 11.2396 17.7288 11.1788 17.6003 11.0688C17.4719 10.9588 17.3905 10.8075 17.3717 10.6437L17.3697 10.6427ZM6.76874 3.91093C6.77407 3.28883 6.97213 2.68216 7.33797 2.16737C7.7038 1.65258 8.22103 1.25272 8.82448 1.01817C9.42792 0.783623 10.0906 0.724888 10.7289 0.849369C11.3673 0.973849 11.9528 1.27597 12.4116 1.71767C12.8704 2.15936 13.182 2.72086 13.3072 3.33139C13.4323 3.94192 13.3654 4.57417 13.1149 5.14845C12.8643 5.72273 12.4414 6.21334 11.8993 6.55846C11.3572 6.90358 10.7203 7.08775 10.0687 7.08777C9.19031 7.08322 8.34962 6.74624 7.73101 6.15071C7.11239 5.55518 6.76634 4.74972 6.76874 3.91093ZM8.16874 3.91093C8.1715 4.26917 8.28528 4.61861 8.49573 4.9152C8.70618 5.21179 9.00387 5.44224 9.35129 5.57751C9.6987 5.71278 10.0803 5.74681 10.4479 5.6753C10.8156 5.6038 11.1528 5.42996 11.4171 5.17571C11.6814 4.92146 11.861 4.59817 11.9332 4.24661C12.0054 3.89505 11.9669 3.53096 11.8227 3.20022C11.6785 2.86949 11.435 2.58693 11.1229 2.38816C10.8107 2.1894 10.4439 2.08332 10.0687 2.08331C9.5634 2.08584 9.07975 2.27969 8.72392 2.62232C8.36809 2.96496 8.16914 3.42839 8.17074 3.91093H8.16874Z" fill="#464646"/>
</svg>
