<svg width="21" height="21" viewBox="0 0 21 21" fill="none" xmlns="http://www.w3.org/2000/svg">
<g id="Group 3256">
<path id="Union 57" d="M7.80598 19.9072L3.89998 16.9222C3.35079 16.4556 2.90343 15.881 2.58569 15.2342C2.26795 14.5873 2.08663 13.8821 2.05298 13.1622L2.05298 6.24921C2.07748 5.51125 2.31045 4.7953 2.72491 4.18422C3.13938 3.57314 3.7184 3.09191 4.39498 2.79621L8.93098 1.04721C9.44979 0.865987 9.99649 0.777636 10.546 0.786214C11.0975 0.778512 11.6463 0.866133 12.168 1.04521H12.174L16.71 2.78621C17.3878 3.08309 17.9677 3.56595 18.3823 4.17884C18.797 4.79174 19.0295 5.50959 19.053 6.24921V13.1622C19.0192 13.882 18.8377 14.5873 18.52 15.2341C18.2023 15.8809 17.755 16.4555 17.206 16.9222L13.297 19.9082C12.503 20.4932 11.5391 20.8016 10.553 20.7862C9.56583 20.8015 8.60088 20.4927 7.80598 19.9072ZM9.40598 2.35421L4.87498 4.10321C4.4612 4.29655 4.10726 4.59795 3.85047 4.97565C3.59369 5.35334 3.44358 5.79333 3.41598 6.24921V13.1622C3.48474 14.1794 3.95187 15.1283 4.71598 15.8032L8.62498 18.7862C9.18628 19.1886 9.86247 19.399 10.553 19.3862C11.2432 19.399 11.919 19.1885 12.48 18.7862L16.39 15.7982C17.1541 15.1233 17.6212 14.1744 17.69 13.1572V6.24921C17.6635 5.79203 17.5141 5.35045 17.2577 4.97101C17.0013 4.59158 16.6473 4.28833 16.233 4.09321L11.698 2.35521C11.3262 2.23462 10.9367 2.17749 10.546 2.18621C10.1602 2.17666 9.77555 2.23348 9.40898 2.35421H9.40598ZM8.84298 12.6602L7.37998 11.1602C7.25181 11.0281 7.18013 10.8513 7.18013 10.6672C7.18013 10.4831 7.25181 10.3063 7.37998 10.1742C7.44247 10.1095 7.51735 10.058 7.60016 10.0229C7.68297 9.98771 7.77201 9.96959 7.86198 9.96959C7.95194 9.96959 8.04099 9.98771 8.1238 10.0229C8.20661 10.058 8.28149 10.1095 8.34398 10.1742L9.32598 11.1742L12.753 7.67321C12.8156 7.60847 12.8905 7.55697 12.9734 7.5218C13.0563 7.48664 13.1454 7.46851 13.2355 7.46851C13.3255 7.46851 13.4146 7.48664 13.4975 7.5218C13.5804 7.55697 13.6554 7.60847 13.718 7.67321C13.8457 7.80556 13.917 7.9823 13.917 8.16621C13.917 8.35013 13.8457 8.52687 13.718 8.65921L9.80898 12.6592C9.7464 12.724 9.67144 12.7755 9.58854 12.8106C9.50565 12.8458 9.41652 12.8639 9.32648 12.8639C9.23643 12.8639 9.14731 12.8458 9.06441 12.8106C8.98152 12.7755 8.90655 12.724 8.84398 12.6592L8.84298 12.6602Z" fill="#464646"/>
</g>
</svg>
