<svg width="56" height="56" viewBox="0 0 56 56" fill="none" xmlns="http://www.w3.org/2000/svg">
<circle cx="28" cy="28" r="27" stroke="#DADADA" stroke-width="2"/>
<path d="M29.03 36.4201H22.71C19.55 36.4201 18.5 34.3201 18.5 32.2101V23.7901C18.5 20.6301 19.55 19.5801 22.71 19.5801H29.03C32.19 19.5801 33.24 20.6301 33.24 23.7901V32.2101C33.24 35.3701 32.18 36.4201 29.03 36.4201Z" stroke="white" stroke-width="1.5" stroke-linecap="round" stroke-linejoin="round"/>
<path d="M36.02 33.1001L33.24 31.1501V24.8401L36.02 22.8901C37.38 21.9401 38.5 22.5201 38.5 24.1901V31.8101C38.5 33.4801 37.38 34.0601 36.02 33.1001Z" stroke="white" stroke-width="1.5" stroke-linecap="round" stroke-linejoin="round"/>
<path d="M28 27C28.8284 27 29.5 26.3284 29.5 25.5C29.5 24.6716 28.8284 24 28 24C27.1716 24 26.5 24.6716 26.5 25.5C26.5 26.3284 27.1716 27 28 27Z" stroke="white" stroke-width="1.5" stroke-linecap="round" stroke-linejoin="round"/>
</svg>
