<svg width="40" height="40" viewBox="0 0 40 40" fill="none" xmlns="http://www.w3.org/2000/svg">
<circle cx="20" cy="20" r="20" fill="#D9D9D9"/>
<path d="M20 23.5C22.21 23.5 24 21.71 24 19.5V14C24 11.79 22.21 10 20 10C17.79 10 16 11.79 16 14V19.5C16 21.71 17.79 23.5 20 23.5Z" stroke="#464646" stroke-width="1.5" stroke-linecap="round" stroke-linejoin="round"/>
<path d="M12.3501 17.6504V19.3504C12.3501 23.5704 15.7801 27.0004 20.0001 27.0004C24.2201 27.0004 27.6501 23.5704 27.6501 19.3504V17.6504" stroke="#464646" stroke-width="1.5" stroke-linecap="round" stroke-linejoin="round"/>
<path d="M18.6099 14.4301C19.5099 14.1001 20.4899 14.1001 21.3899 14.4301" stroke="#464646" stroke-width="1.5" stroke-linecap="round" stroke-linejoin="round"/>
<path d="M19.2002 16.5503C19.7302 16.4103 20.2802 16.4103 20.8102 16.5503" stroke="#464646" stroke-width="1.5" stroke-linecap="round" stroke-linejoin="round"/>
<path d="M20 27V30" stroke="#464646" stroke-width="1.5" stroke-linecap="round" stroke-linejoin="round"/>
</svg>
